HIERARCHY
ROOT Hips
{
    OFFSET   0.000000   0.000000   0.000000
    CHANNELS 6 Xposition Yposition Zposition Zrotation Xrotation Yrotation
    JOINT Chest
    {
        OFFSET   0.000000   8.007230   0.000000
        CHANNELS 3 Zrotation Xrotation Yrotation
        JOINT Chest2
        {
            OFFSET   0.000000  22.077100   0.000000
            CHANNELS 3 Zrotation Xrotation Yrotation
            JOINT Neck
            {
                OFFSET   0.000000  23.254800  -0.000021
                CHANNELS 3 Zrotation Xrotation Yrotation
                JOINT Head
                {
                    OFFSET   0.000000  14.370000   1.956610
                    CHANNELS 3 Zrotation Xrotation Yrotation
                    End Site
                    {
                        OFFSET   0.000000  19.566000   0.000000
                    }
                }
            }
            JOINT LeftCollar
            {
                OFFSET   3.911900  19.017000  -0.467063
                CHANNELS 3 Zrotation Xrotation Yrotation
                JOINT LeftShoulder
                {
                    OFFSET  10.383700   0.000000   0.000000
                    CHANNELS 3 Zrotation Xrotation Yrotation
                    JOINT LeftElbow
                    {
                        OFFSET  26.662100   0.001529   0.000325
                        CHANNELS 3 Zrotation Xrotation Yrotation
                        JOINT LeftWrist
                        {
                            OFFSET  28.869000  -0.000011  -0.000096
                            CHANNELS 3 Zrotation Xrotation Yrotation
                            JOINT LeftFinger0
                            {
                                OFFSET   2.044650  -2.323460   3.252850
                                CHANNELS 3 Zrotation Xrotation Yrotation
                                JOINT LeftFinger01
                                {
                                    OFFSET   3.088130   0.000000   0.000000
                                    CHANNELS 3 Zrotation Xrotation Yrotation
                                    JOINT LeftFinger02
                                    {
                                        OFFSET   2.639460   0.000000   0.000000
                                        CHANNELS 3 Zrotation Xrotation Yrotation
                                        End Site
                                        {
                                            OFFSET   2.582190   0.000000   0.000000
                                        }
                                    }
                                }
                            }
                            JOINT LeftFinger1
                            {
                                OFFSET   8.364480   0.000000   3.252850
                                CHANNELS 3 Zrotation Xrotation Yrotation
                                JOINT LeftFinger11
                                {
                                    OFFSET   4.646930   0.000000   0.000000
                                    CHANNELS 3 Zrotation Xrotation Yrotation
                                    JOINT LeftFinger12
                                    {
                                        OFFSET   2.323460   0.000000   0.000000
                                        CHANNELS 3 Zrotation Xrotation Yrotation
                                        End Site
                                        {
                                            OFFSET   2.273050   0.000000   0.000000
                                        }
                                    }
                                }
                            }
                            JOINT LeftFinger2
                            {
                                OFFSET   8.364480   0.000016   1.078090
                                CHANNELS 3 Zrotation Xrotation Yrotation
                                JOINT LeftFinger21
                                {
                                    OFFSET   5.111620   0.000000   0.000000
                                    CHANNELS 3 Zrotation Xrotation Yrotation
                                    JOINT LeftFinger22
                                    {
                                        OFFSET   2.788160   0.000017   0.000000
                                        CHANNELS 3 Zrotation Xrotation Yrotation
                                        End Site
                                        {
                                            OFFSET   2.727660   0.000000   0.000000
                                        }
                                    }
                                }
                            }
                            JOINT LeftFinger3
                            {
                                OFFSET   7.899780   0.000015  -1.078090
                                CHANNELS 3 Zrotation Xrotation Yrotation
                                JOINT LeftFinger31
                                {
                                    OFFSET   4.646920   0.000000   0.000000
                                    CHANNELS 3 Zrotation Xrotation Yrotation
                                    JOINT LeftFinger32
                                    {
                                        OFFSET   2.323470   0.000000   0.000000
                                        CHANNELS 3 Zrotation Xrotation Yrotation
                                        End Site
                                        {
                                            OFFSET   2.273050   0.000000   0.000000
                                        }
                                    }
                                }
                            }
                            JOINT LeftFinger4
                            {
                                OFFSET   7.435090   0.000000  -3.252850
                                CHANNELS 3 Zrotation Xrotation Yrotation
                                JOINT LeftFinger41
                                {
                                    OFFSET   3.717550   0.000000   0.000000
                                    CHANNELS 3 Zrotation Xrotation Yrotation
                                    JOINT LeftFinger42
                                    {
                                        OFFSET   1.858760   0.000000   0.000000
                                        CHANNELS 3 Zrotation Xrotation Yrotation
                                        End Site
                                        {
                                            OFFSET   1.818440   0.000000   0.000000
                                        }
                                    }
                                }
                            }
                        }
                    }
                }
            }
            JOINT RightCollar
            {
                OFFSET  -3.911900  19.017000  -0.467062
                CHANNELS 3 Zrotation Xrotation Yrotation
                JOINT RightShoulder
                {
                    OFFSET -10.383700   0.000015   0.000000
                    CHANNELS 3 Zrotation Xrotation Yrotation
                    JOINT RightElbow
                    {
                        OFFSET -26.662100   0.001341   0.000385
                        CHANNELS 3 Zrotation Xrotation Yrotation
                        JOINT RightWrist
                        {
                            OFFSET -28.869000   0.000025  -0.000080
                            CHANNELS 3 Zrotation Xrotation Yrotation
                            JOINT RightFinger0
                            {
                                OFFSET  -2.044650  -2.323490   3.252850
                                CHANNELS 3 Zrotation Xrotation Yrotation
                                JOINT RightFinger01
                                {
                                    OFFSET  -3.088130   0.000000   0.000000
                                    CHANNELS 3 Zrotation Xrotation Yrotation
                                    JOINT RightFinger02
                                    {
                                        OFFSET  -2.639460   0.000000   0.000000
                                        CHANNELS 3 Zrotation Xrotation Yrotation
                                        End Site
                                        {
                                            OFFSET  -2.582190   0.000000   0.000000
                                        }
                                    }
                                }
                            }
                            JOINT RightFinger1
                            {
                                OFFSET  -8.364480   0.000000   3.252850
                                CHANNELS 3 Zrotation Xrotation Yrotation
                                JOINT RightFinger11
                                {
                                    OFFSET  -4.646930   0.000000   0.000000
                                    CHANNELS 3 Zrotation Xrotation Yrotation
                                    JOINT RightFinger12
                                    {
                                        OFFSET  -2.323470   0.000000   0.000000
                                        CHANNELS 3 Zrotation Xrotation Yrotation
                                        End Site
                                        {
                                            OFFSET  -2.273050   0.000000   0.000000
                                        }
                                    }
                                }
                            }
                            JOINT RightFinger2
                            {
                                OFFSET  -8.364480   0.000000   1.078090
                                CHANNELS 3 Zrotation Xrotation Yrotation
                                JOINT RightFinger21
                                {
                                    OFFSET  -5.111610   0.000000   0.000000
                                    CHANNELS 3 Zrotation Xrotation Yrotation
                                    JOINT RightFinger22
                                    {
                                        OFFSET  -2.788160   0.000000   0.000000
                                        CHANNELS 3 Zrotation Xrotation Yrotation
                                        End Site
                                        {
                                            OFFSET  -2.727660   0.000000   0.000000
                                        }
                                    }
                                }
                            }
                            JOINT RightFinger3
                            {
                                OFFSET  -7.899780   0.000000  -1.078090
                                CHANNELS 3 Zrotation Xrotation Yrotation
                                JOINT RightFinger31
                                {
                                    OFFSET  -4.646920   0.000000   0.000000
                                    CHANNELS 3 Zrotation Xrotation Yrotation
                                    JOINT RightFinger32
                                    {
                                        OFFSET  -2.323470   0.000000   0.000000
                                        CHANNELS 3 Zrotation Xrotation Yrotation
                                        End Site
                                        {
                                            OFFSET  -2.273050   0.000000   0.000000
                                        }
                                    }
                                }
                            }
                            JOINT RightFinger4
                            {
                                OFFSET  -7.435090   0.000000  -3.252850
                                CHANNELS 3 Zrotation Xrotation Yrotation
                                JOINT RightFinger41
                                {
                                    OFFSET  -3.717550   0.000000   0.000000
                                    CHANNELS 3 Zrotation Xrotation Yrotation
                                    JOINT RightFinger42
                                    {
                                        OFFSET  -1.858770   0.000000   0.000000
                                        CHANNELS 3 Zrotation Xrotation Yrotation
                                        End Site
                                        {
                                            OFFSET  -1.818440   0.000000   0.000000
                                        }
                                    }
                                }
                            }
                        }
                    }
                }
            }
        }
    }
    JOINT LeftHip
    {
        OFFSET   9.783010   0.000000   0.000000
        CHANNELS 3 Zrotation Xrotation Yrotation
        JOINT LeftKnee
        {
            OFFSET   0.000070 -41.789100   0.000028
            CHANNELS 3 Zrotation Xrotation Yrotation
            JOINT LeftAnkle
            {
                OFFSET   0.000087 -41.133200  -0.000100
                CHANNELS 3 Zrotation Xrotation Yrotation
                JOINT LeftToe
                {
                    OFFSET   0.000000  -6.358960  14.674500
                    CHANNELS 3 Zrotation Xrotation Yrotation
                    End Site
                    {
                        OFFSET   0.000000   0.000000   3.913200
                    }
                }
            }
        }
    }
    JOINT RightHip
    {
        OFFSET  -9.783020   0.000000   0.000000
        CHANNELS 3 Zrotation Xrotation Yrotation
        JOINT RightKnee
        {
            OFFSET   0.000044 -41.789100  -0.000870
            CHANNELS 3 Zrotation Xrotation Yrotation
            JOINT RightAnkle
            {
                OFFSET  -0.000090 -41.133200  -0.000245
                CHANNELS 3 Zrotation Xrotation Yrotation
                JOINT RightToe
                {
                    OFFSET   0.000000  -6.358960  14.674500
                    CHANNELS 3 Zrotation Xrotation Yrotation
                    End Site
                    {
                        OFFSET   0.000000   0.000000   3.913200
                    }
                }
            }
        }
    }
}
MOTION
Frames: 6
Frame Time:   0.016667
 -0.249724  89.564100  -1.480290  -0.446242  -3.131670   4.246080   0.561154   2.792460  -0.594453   1.153380   5.578810  -1.218450  -1.079110   1.901250   0.028586  -1.776700   3.850120   3.817460  -4.345700   3.143230   9.443510 -79.197100   6.289650   1.055020   0.089169   5.689040 -20.047600   6.494080  -7.232670   2.066760  39.592600  32.102800 -46.074800 -31.711700   0.009372   0.005802 -10.857000   0.001619   0.000952 -33.053500  -1.878360   2.876280 -27.092900   0.003499  -0.001901 -18.965000   0.002652  -0.001237 -29.115700  -3.736030   6.694500 -44.000500   0.002149  -0.000411 -29.304300   0.001299   0.000633 -27.600600  -5.134800   9.723650 -32.224100   0.002355  -0.002989 -21.461200   0.001407  -0.007481 -29.090500  -6.730110  11.876500 -44.700300   0.000431  -0.004646 -29.770400   0.003474  -0.001464   4.691190   4.263430   6.810070  71.624600  -3.381330  -3.693370   2.539040  -2.181960  23.390400 -15.387900  -2.245190   0.718987 -47.909500  40.458300  81.994900  22.534700   0.000000  -0.001431   6.267320  -0.000413  -0.000701  30.758600  -0.677386  -1.130990  25.170100  -0.001504  -0.004800  17.619100  -0.002224   0.000000  28.597500  -1.968550  -3.607180  38.254200  -0.010962   0.001915  25.477300  -0.005659  -0.000366  28.566700  -3.215510  -5.880470  39.614500  -0.004731   0.005473  26.383300   0.000567  -0.000548  33.736500  -4.613550  -6.855180  51.007800  -0.008391   0.003896  33.971200   0.000403  -0.000889   2.530390   2.621450  -0.651005   0.838102   0.813992  10.708400  -3.384250  -0.314727  -0.685241  -0.000000   0.000000   0.000000  -0.439511   1.006420  -2.655370  -0.858919   5.811890 -14.099800   2.173170  -5.139070  -3.419350  -0.000000   0.000000   0.000000
 -0.244486  89.564100  -1.484050  -0.440318  -3.162590   4.249670   0.561553   2.818510  -0.604575   1.155500   5.630790  -1.239120  -1.038790   1.966840   0.028837  -1.709820   3.982890   3.555220  -4.348910   3.173930   9.440130 -79.235200   6.359720   1.009550   0.092367   5.681340 -20.083400   6.497610  -7.205360   2.058470  39.599200  32.111600 -46.086000 -31.711700   0.009365   0.005828 -10.856600   0.001622   0.000947 -33.054600  -1.878360   2.877420 -27.093100   0.003496  -0.001898 -18.965100   0.002652  -0.001233 -29.116000  -3.736040   6.694330 -44.000900   0.002154  -0.000410 -29.304600   0.001302   0.000635 -27.600700  -5.134800   9.723710 -32.228800   0.002353  -0.002989 -21.464300   0.001407  -0.007481 -29.091900  -6.729990  11.881600 -44.697800   0.000430  -0.004644 -29.768800   0.003473  -0.001464   4.671200   4.254130   6.804230  71.493200  -3.381340  -3.909840   2.667310  -2.274810  24.089600 -15.764600  -2.730430   1.089150 -48.184100  40.528500  82.320800  22.137700   0.000000  -0.001472   6.068800  -0.000419  -0.000721  30.881900  -0.521045  -0.860630  25.271000  -0.001532  -0.004805  17.689700  -0.002243   0.000000  28.617300  -1.839040  -3.368440  38.487800  -0.011070   0.001876  25.632900  -0.005784  -0.000344  28.596900  -2.984580  -5.455220  39.758000  -0.004829   0.005488  26.478900   0.000534  -0.000525  33.806200  -4.270000  -6.334690  51.019900  -0.008514   0.003955  33.979200   0.000369  -0.000870   2.524600   2.649130  -0.660016   0.837387   0.813020  10.722000  -3.384050  -0.309179  -0.692925   0.000000   0.000000   0.000000  -0.442263   1.072440  -2.666970  -0.867594   5.780650 -14.085400   2.190620  -5.125270  -3.411540  -0.000000   0.000000   0.000000
 -0.235668  89.564100  -1.489490  -0.428493  -3.221980   4.261030   0.560416   2.862850  -0.624208   1.154240   5.719280  -1.278870  -0.950603   2.088070   0.029090  -1.564780   4.228890   2.990290  -4.345560   3.227290   9.415000 -79.273400   6.480390   0.937577   0.094000   5.659980 -20.128500   6.503930  -7.164950   2.042750  39.612200  32.134200 -46.109700 -31.711700   0.009342   0.005855 -10.856200   0.001625   0.000942 -33.057200  -1.878350   2.883130 -27.093300   0.003490  -0.001891 -18.965200   0.002651  -0.001221 -29.116300  -3.736060   6.694150 -44.001300   0.002170  -0.000405 -29.304800   0.001311   0.000641 -27.600900  -5.134820   9.723840 -32.237300   0.002347  -0.002989 -21.470000   0.001405  -0.007480 -29.095300  -6.729740  11.891800 -44.695400   0.000428  -0.004637 -29.767200   0.003469  -0.001462   4.634660   4.221050   6.776080  71.286900  -3.385670  -4.305380   2.852850  -2.354740  25.382600 -16.558900  -3.860200   1.725230 -48.459700  40.596600  82.648100  21.740600   0.000000  -0.001565   5.870280  -0.000424  -0.000765  31.179600  -0.364671  -0.590287  25.516400  -0.001594  -0.004821  17.861500  -0.002275  -0.000000  28.648400  -1.709430  -3.129760  39.002500  -0.011221   0.001788  25.975700  -0.005958  -0.000295  28.623700  -2.753160  -5.030230  40.111600  -0.004993   0.005526  26.714300   0.000460  -0.000473  33.869600  -3.925400  -5.814890  51.104300  -0.008636   0.004015  34.035500   0.000295  -0.000829   2.513540   2.700480  -0.676156   0.836533   0.812021  10.745500  -3.383860  -0.300731  -0.711046  -0.000000   0.000000  -0.000000  -0.447589   1.162100  -2.687980  -0.877947   5.749830 -14.054100   2.220190  -5.111470  -3.403740  -0.000000   0.000000   0.000000
 -0.227862  89.562000  -1.491880  -0.415046  -3.284090   4.282170   0.550070   2.899250  -0.644923   1.134510   5.792010  -1.320210  -0.833624   2.209420   0.029027  -1.372440   4.475570   2.288550  -4.323130   3.272210   9.343500 -79.273000   6.585300   0.895434   0.086825   5.622650 -20.138600   6.511960  -7.144860   2.023960  39.626800  32.169000 -46.141100 -31.717100   0.009304   0.005845 -10.858800   0.001620   0.000949 -33.062400  -1.885080   2.895130 -27.093200   0.003481  -0.001879 -18.965200   0.002651  -0.001203 -29.115600  -3.736080   6.694200 -44.000300   0.002194  -0.000398 -29.304200   0.001323   0.000650 -27.601000  -5.134830   9.724010 -32.248300   0.002337  -0.002990 -21.477300   0.001401  -0.007479 -29.101300  -6.736630  11.903200 -44.704100   0.000430  -0.004627 -29.773000   0.003461  -0.001459   4.600660   4.155290   6.717360  71.143300  -3.403860  -4.699640   2.891540  -2.170280  26.652500 -17.641600  -5.465610   2.327390 -48.006200  40.348400  82.314200  21.802900   0.000000  -0.001701   5.901450  -0.000409  -0.000830  31.646100  -0.487602  -0.779355  25.899000  -0.001680  -0.004852  18.129300  -0.002310   0.000023  28.673100  -1.826980  -3.340500  39.716200  -0.011287   0.001664  26.451000  -0.006030  -0.000228  28.633000  -2.805150  -5.122840  40.676200  -0.005154   0.005581  27.090300   0.000356  -0.000399  34.092600  -3.962940  -5.819820  51.478100  -0.007721   0.003992  34.284400   0.000192  -0.000772   2.502700   2.749660  -0.695656   0.834654   0.822748  10.766900  -3.384240  -0.295811  -0.736272   0.000000   0.000000   0.000000  -0.453474   1.182240  -2.714070  -0.895683   5.795990 -14.008100   2.245700  -5.113040  -3.423140  -0.000000   0.000000   0.000000
 -0.221084  89.558400  -1.493840  -0.398951  -3.359480   4.308190   0.529634   2.938720  -0.670544   1.095890   5.870940  -1.371010  -0.696211   2.346500   0.028573  -1.147080   4.754810   1.395560  -4.291200   3.324710   9.238550 -79.268900   6.694480   0.843058   0.078394   5.579140 -20.138600   6.516220  -7.127960   2.007350  39.644000  32.213400 -46.175400 -31.727400   0.009254   0.005818 -10.863700   0.001615   0.000956 -33.065400  -1.898330   2.912820 -27.092900   0.003469  -0.001863 -18.965000   0.002650  -0.001179 -29.110800  -3.736110   6.694500 -43.993100   0.002225  -0.000388 -29.299400   0.001340   0.000663 -27.601000  -5.134860   9.724190 -32.255300   0.002324  -0.002991 -21.482000   0.001395  -0.007479 -29.103600  -6.746790  11.917000 -44.712800   0.000433  -0.004613 -29.778700   0.003449  -0.001455   4.558360   4.073110   6.631740  71.023400  -3.432900  -5.125920   2.835330  -1.864030  28.135600 -18.712900  -7.400020   2.853650 -47.224900  39.886900  81.723400  21.865300   0.000000  -0.001853   5.932620  -0.000386  -0.000902  32.166900  -0.674503  -1.062860  26.326600  -0.001772  -0.004890  18.428600  -0.002333   0.000059  28.692200  -2.005570  -3.660930  40.503900  -0.011309   0.001521  26.975600  -0.006053  -0.000151  28.646300  -2.881620  -5.259000  41.294700  -0.005250   0.005649  27.502300   0.000247  -0.000322  34.436100  -4.014550  -5.824860  51.961200  -0.006193   0.003895  34.606100   0.000083  -0.000711   2.488110   2.810740  -0.708048   0.833182   0.839764  10.787100  -3.384650  -0.291523  -0.768728   0.000000   0.000000   0.000000  -0.460352   1.195590  -2.730740  -0.921597   5.873980 -13.966100   2.267530  -5.123490  -3.458120   0.000000   0.000000   0.000000
 -0.218164  89.555700  -1.496160  -0.380782  -3.450840   4.336420   0.501200   2.984190  -0.701658   1.041140   5.961910  -1.432370  -0.551023   2.492020   0.024764  -0.909134   5.051580   0.296699  -4.254990   3.391680   9.108130 -79.215300   6.802340   0.755074   0.067555   5.547930 -20.096500   6.512180  -7.115870   2.001230  39.663000  32.270600 -46.208900 -31.739100   0.009194   0.005766 -10.869600   0.001618   0.000954 -33.054600  -1.917640   2.944140 -27.085000   0.003454  -0.001845 -18.959400   0.002648  -0.001151 -29.093900  -3.736110   6.698830 -43.967900   0.002261  -0.000375 -29.282600   0.001360   0.000677 -27.599300  -5.134880   9.724320 -32.242000   0.002309  -0.002992 -21.473200   0.001388  -0.007476 -29.087200  -6.752480  11.937800 -44.691400   0.000436  -0.004595 -29.764400   0.003432  -0.001453   4.505790   3.986040   6.515210  70.949000  -3.462180  -5.557420   2.605220  -1.514160  29.869600 -19.428400  -9.506270   3.096980 -46.563200  39.394500  81.132000  21.767100   0.000000  -0.002001   5.883560  -0.000367  -0.000972  32.625500  -0.783110  -1.217950  26.702200  -0.001858  -0.004926  18.691500  -0.002318   0.000080  28.702200  -2.108380  -3.845840  41.203800  -0.010015   0.001380  27.441800  -0.005702  -0.000057  28.654200  -2.920550  -5.327940  41.791400  -0.005150   0.005726  27.833100   0.000148  -0.000250  34.657200  -4.033340  -5.807710  52.292100  -0.004950   0.003680  34.826500  -0.000017  -0.000654   2.467160   2.889990  -0.708003   0.835508   0.851202  10.805000  -3.381020  -0.285921  -0.810693   0.000000   0.000000   0.000000  -0.468269   1.228740  -2.725320  -0.937116   5.956920 -13.955500   2.281740  -5.150060  -3.491930   0.000000   0.000000   0.000000
